<?xml version="1.0" encoding="UTF-8" standalone="no"?>
<svg width="152px" height="33px" viewBox="0 0 152 33" version="1.1" xmlns="http://www.w3.org/2000/svg" xmlns:xlink="http://www.w3.org/1999/xlink" xmlns:sketch="http://www.bohemiancoding.com/sketch/ns">
    <!-- Generator: Sketch 3.3.3 (12081) - http://www.bohemiancoding.com/sketch -->
    <title>Group</title>
    <desc>Created with Sketch.</desc>
    <defs></defs>
    <g id="Interstitial" stroke="none" stroke-width="1" fill="none" fill-rule="evenodd" sketch:type="MSPage">
        <g id="Bundle-F" sketch:type="MSArtboardGroup" transform="translate(-551.000000, -60.000000)">
            <g id="Group" sketch:type="MSLayerGroup" transform="translate(551.000000, 60.500000)">
                <path d="M43.7829688,8.40506329 C43.6841054,8.10126582 43.4863785,8 43.1897882,8 L37.6534355,8 C37.3568452,8 37.1591183,8.20253165 37.0602549,8.40506329 L30.0409506,31.1898734 C29.9420871,31.3924051 30.0409506,31.5949367 30.139814,31.6962025 C30.2386775,31.8987342 30.4364043,31.8987342 30.6341312,31.8987342 L34.4898054,31.8987342 C34.7863957,31.8987342 34.9841226,31.6962025 35.0829861,31.4936709 L39.9272946,14.6835443 C39.9272946,14.6835443 40.0261581,14.278481 40.5204753,14.278481 C41.0147925,14.278481 41.1136559,14.6835443 41.1136559,14.6835443 L43.3875151,22.6835443 L40.4216118,22.6835443 C40.1250215,22.6835443 39.9272946,22.8860759 39.8284312,23.0886076 L38.8397968,26.4303797 C38.7409334,26.6329114 38.8397968,26.835443 38.9386602,26.9367089 C39.0375237,27.1392405 39.2352506,27.1392405 39.4329774,27.1392405 L44.5738764,27.1392405 L45.9579645,31.5949367 C46.056828,31.8987342 46.2545548,32 46.5511452,32 L50.4068194,32 C50.6045462,32 50.8022731,31.8987342 50.9011366,31.7974684 C51,31.5949367 51,31.3924051 51,31.2911392 L43.7829688,8.40506329 L43.7829688,8.40506329 Z" id="Shape" fill="#1D5080" sketch:type="MSShapeGroup"></path>
                <path d="M60.7079646,28.1327434 C60.7079646,27.9292035 60.6106195,27.8274336 60.4159292,27.7256637 C60.3185841,27.6238938 60.1238938,27.6238938 59.9292035,27.6238938 C59.3451327,27.8274336 58.7610619,27.8274336 58.2743363,27.8274336 C57.3982301,27.8274336 57.0088496,27.420354 57.0088496,26.6061947 L57.0088496,17.8539823 L60.4159292,17.8539823 C60.7079646,17.8539823 61,17.5486726 61,17.2433628 L61,14.4955752 C61,14.1902655 60.7079646,13.8849558 60.4159292,13.8849558 L57.0088496,13.8849558 L57.0088496,9.61061947 C57.0088496,9.40707965 56.9115044,9.30530973 56.8141593,9.10176991 C56.8141593,9 56.619469,9 56.4247788,9 L52.920354,9.50884956 C52.6283186,9.50884956 52.4336283,9.81415929 52.4336283,10.119469 L52.4336283,13.8849558 L50.5840708,13.8849558 C50.2920354,13.8849558 50,14.1902655 50,14.4955752 L50,17.1415929 C50,17.4469027 50.2920354,17.7522124 50.5840708,17.7522124 L52.4336283,17.7522124 L52.4336283,27.1150442 C52.4336283,30.3716814 54.0884956,32 57.2035398,32 C58.079646,32 59.6371681,31.7964602 60.6106195,31.3893805 C60.9026549,31.2876106 61,30.9823009 61,30.6769912 L60.7079646,28.1327434 L60.7079646,28.1327434 Z" id="Shape" fill="#1D5080" sketch:type="MSShapeGroup"></path>
                <path d="M67.375,8 L63.625,8 C63.3125,8 63,8.29875519 63,8.59751037 L63,31.4024896 C63,31.7012448 63.3125,32 63.625,32 L67.375,32 C67.6875,32 68,31.7012448 68,31.4024896 L68,8.59751037 C68,8.19917012 67.6875,8 67.375,8 L67.375,8 Z" id="Shape" fill="#1D5080" sketch:type="MSShapeGroup"></path>
                <path d="M76.5467626,14 C74.7338129,14 72.5179856,14.2967033 70.9064748,14.6923077 C70.6043165,14.7912088 70.4028777,15.0879121 70.5035971,15.3846154 L70.9064748,17.956044 C70.9064748,18.1538462 71.0071942,18.2527473 71.2086331,18.3516484 C71.3093525,18.4505495 71.5107914,18.4505495 71.7122302,18.4505495 C73.2230216,18.1538462 74.7338129,18.0549451 76.0431655,18.0549451 C78.6618705,18.0549451 79.0647482,18.5494505 79.0647482,20.3296703 L79.0647482,21.8131868 L75.2374101,21.8131868 C71.6115108,21.8131868 70,23.2967033 70,26.7582418 C70,30.1208791 71.7122302,32 74.7338129,32 C76.4460432,32 78.1582734,31.5054945 79.6690647,30.6153846 L79.8705036,31.2087912 C79.971223,31.5054945 80.1726619,31.6043956 80.4748201,31.6043956 L83.3956835,31.6043956 C83.6978417,31.6043956 84,31.3076923 84,31.010989 L84,20.3296703 C83.7985612,15.6813187 81.8848921,14 76.5467626,14 L76.5467626,14 Z M79,25 L79,27.1724138 C78.4418605,27.4827586 77.4186047,28 76.3023256,28 C75.2790698,28 75,27.6896552 75,26.5517241 C75,25.4137931 75.1860465,25.1034483 76.3953488,25.1034483 L79,25.1034483 L79,25 Z" id="Shape" fill="#1D5080" sketch:type="MSShapeGroup"></path>
                <path d="M92.8763408,20.8852459 C90.7534216,20.295082 90.7534216,20.295082 90.7534216,19.1147541 C90.7534216,18.3278689 90.8499179,17.9344262 92.5868518,17.9344262 C93.7448077,17.9344262 95.5782379,18.1311475 96.7361939,18.3278689 C96.9291865,18.3278689 97.0256829,18.3278689 97.2186755,18.2295082 C97.3151718,18.1311475 97.4116682,18.0327869 97.4116682,17.8360656 L97.7011571,15.1803279 C97.7011571,14.8852459 97.5081645,14.5901639 97.2186755,14.4918033 C95.8677269,14.1967213 94.0342967,14 92.5868518,14 C87.2795538,14 86.2180942,16.0655738 86.2180942,19.1147541 C86.2180942,22.4590164 86.7970722,23.6393443 90.8499179,24.6229508 C93.5518151,25.3114754 93.5518151,25.8032787 93.5518151,26.5901639 C93.5518151,27.6721311 93.4553187,27.9672131 91.7183849,27.9672131 C90.2709399,27.9672131 88.7269987,27.7704918 87.2795538,27.3770492 C87.0865611,27.3770492 86.9900648,27.3770492 86.7970722,27.4754098 C86.7005758,27.5737705 86.6040795,27.6721311 86.5075832,27.8688525 L86.0251015,30.4262295 C85.9286052,30.7213115 86.1215979,31.0163934 86.4110869,31.1147541 C87.9550281,31.6065574 90.1744436,32 91.8148812,32 C96.9291865,32 97.9906461,29.8360656 97.9906461,26.4918033 C98.0871425,22.7540984 97.5081645,22.1639344 92.8763408,20.8852459 L92.8763408,20.8852459 Z" id="Shape" fill="#1D5080" sketch:type="MSShapeGroup"></path>
                <path d="M105.876884,20.8852459 C103.753797,20.295082 103.753797,20.295082 103.753797,19.1147541 C103.753797,18.3278689 103.850301,17.9344262 105.587372,17.9344262 C106.745419,17.9344262 108.578994,18.1311475 109.737042,18.3278689 C109.930049,18.3278689 110.026553,18.3278689 110.219561,18.2295082 C110.316065,18.1311475 110.412569,18.0327869 110.412569,17.8360656 L110.702081,15.1803279 C110.702081,14.8852459 110.509073,14.5901639 110.219561,14.4918033 C108.868506,14.1967213 107.034931,14 105.587372,14 C100.279655,14 99.2181114,16.0655738 99.2181114,19.1147541 C99.2181114,22.4590164 99.7971351,23.6393443 103.850301,24.6229508 C106.552411,25.3114754 106.552411,25.8032787 106.552411,26.5901639 C106.552411,27.6721311 106.455907,27.9672131 104.718836,27.9672131 C103.271277,27.9672131 101.727214,27.7704918 100.279655,27.3770492 C100.086647,27.3770492 99.990143,27.3770492 99.7971351,27.4754098 C99.7006312,27.5737705 99.6041272,27.6721311 99.5076233,27.8688525 L99.0251035,30.4262295 C98.9285996,30.7213115 99.1216075,31.0163934 99.4111193,31.1147541 C100.955182,31.6065574 103.174773,32 104.81534,32 C109.930049,32 110.991593,29.8360656 110.991593,26.4918033 C111.088097,22.7540984 110.412569,22.1639344 105.876884,20.8852459 L105.876884,20.8852459 Z" id="Shape" fill="#1D5080" sketch:type="MSShapeGroup"></path>
                <g id="Shape" transform="translate(114.000000, 15.000000)"></g>
                <path d="M127.546763,14 C125.733813,14 123.517986,14.2967033 121.906475,14.6923077 C121.604317,14.7912088 121.402878,15.0879121 121.503597,15.3846154 L121.906475,17.956044 C121.906475,18.1538462 122.007194,18.2527473 122.208633,18.3516484 C122.309353,18.4505495 122.510791,18.4505495 122.71223,18.4505495 C124.223022,18.1538462 125.733813,18.0549451 127.043165,18.0549451 C129.661871,18.0549451 130.064748,18.5494505 130.064748,20.3296703 L130.064748,21.8131868 L126.23741,21.8131868 C122.611511,21.8131868 121,23.2967033 121,26.7582418 C121,30.1208791 122.71223,32 125.733813,32 C127.446043,32 129.158273,31.5054945 130.669065,30.6153846 L130.870504,31.2087912 C130.971223,31.5054945 131.172662,31.6043956 131.47482,31.6043956 L134.395683,31.6043956 C134.697842,31.6043956 135,31.3076923 135,31.010989 L135,20.3296703 C134.697842,15.6813187 132.784173,14 127.546763,14 L127.546763,14 Z M130,25 L130,27.1724138 C129.44186,27.4827586 128.418605,28 127.302326,28 C126.27907,28 126,27.6896552 126,26.5517241 C126,25.4137931 126.186047,25.1034483 127.395349,25.1034483 L130,25.1034483 L130,25 Z" id="Shape" fill="#1D5080" sketch:type="MSShapeGroup"></path>
                <path d="M147.771812,14 C145.85906,14 143.241611,14.7039106 141.127517,15.7094972 L140.825503,14.8044693 C140.724832,14.5027933 140.52349,14.4022346 140.221477,14.4022346 L137.604027,14.4022346 C137.302013,14.4022346 137,14.7039106 137,15.0055866 L137,31.396648 C137,31.698324 137.302013,32 137.604027,32 L141.228188,32 C141.530201,32 141.832215,31.698324 141.832215,31.396648 L141.832215,20.0335196 C143.14094,19.3296089 144.95302,18.726257 146.060403,18.726257 C146.865772,18.726257 147.167785,19.027933 147.167785,19.8324022 L147.167785,31.396648 C147.167785,31.698324 147.469799,32 147.771812,32 L151.395973,32 C151.697987,32 152,31.698324 152,31.396648 L152,19.3296089 C151.899329,15.8100559 150.489933,14 147.771812,14 L147.771812,14 Z" id="Shape" fill="#1D5080" sketch:type="MSShapeGroup"></path>
                <path d="M34.786432,0.394366197 C34.5866901,0.197183099 34.3869481,0.0985915493 34.0873351,0.0985915493 C33.9874642,0.0985915493 33.7877222,0.0985915493 33.6878512,0.197183099 C28.8940441,2.76056338 23.3012691,4.14084507 17.5087522,4.14084507 C11.7162352,4.14084507 6.12346026,2.76056338 1.22978216,0.0985915493 C1.12991117,4.88498131e-14 1.03004019,4.88498131e-14 0.83029823,4.88498131e-14 C0.530685284,4.88498131e-14 0.330943321,0.0985915493 0.131201358,0.295774648 C-0.068540606,0.591549296 -0.068540606,1.08450704 0.330943321,1.38028169 C2.72784688,3.15492958 5.42436339,4.53521127 8.32062186,5.52112676 C11.3167513,6.50704225 14.4127517,7 17.5087522,7 L17.5087522,7 C20.6047526,7 23.700753,6.50704225 26.6968825,5.52112676 C29.593141,4.53521127 32.1897865,3.15492958 34.686561,1.38028169 C35.086045,1.18309859 35.086045,0.690140845 34.786432,0.394366197 L34.786432,0.394366197 Z" id="Shape" fill="#5BABDC" sketch:type="MSShapeGroup"></path>
                <path d="M28.7012448,8.09917355 C28.6016598,8 28.4024896,8 28.3029046,8 L28.1037344,8 C26.7095436,8.49586777 25.3153527,8.89256198 24.0207469,9.2892562 C23.7219917,9.38842975 23.5228216,9.58677686 23.4232365,9.78512397 C22.4273859,12.3636364 20.0373444,14.8429752 17.5477178,17.4214876 C17.4481328,17.5206612 17.3485477,17.6198347 17.0497925,17.6198347 C16.8506224,17.6198347 16.6514523,17.5206612 16.5518672,17.4214876 C13.9626556,14.8429752 11.5726141,12.3636364 10.6763485,9.78512397 C10.5767635,9.58677686 10.3775934,9.38842975 10.0788382,9.2892562 C8.78423237,8.99173554 7.39004149,8.59504132 5.89626556,8 L5.69709544,8 C5.59751037,8 5.39834025,8 5.29875519,8.09917355 C5.09958506,8.19834711 5,8.49586777 5,8.69421488 C5.19917012,10.8760331 6.09543568,12.9586777 7.58921162,15.1404959 C9.08298755,17.2231405 10.8755187,19.107438 12.7676349,20.9917355 C16.153527,24.3636364 19.340249,27.6363636 19.5394191,31.4049587 C19.5394191,31.7024793 19.8381743,32 20.2365145,32 L24.219917,32 C24.4190871,32 24.5186722,31.9008264 24.7178423,31.8016529 C24.8174274,31.7024793 24.9170124,31.5041322 24.9170124,31.3057851 C24.8174274,28.8264463 23.8215768,26.3471074 22.0290456,23.6694215 C21.6307054,23.0743802 21.2323651,22.5785124 20.8340249,22.0826446 C20.6348548,21.8842975 20.7344398,21.5867769 20.8340249,21.4876033 C20.93361,21.3884298 21.1327801,21.1900826 21.2323651,21.0909091 C23.0248963,19.2066116 24.9170124,17.322314 26.4107884,15.2396694 C27.9045643,13.0578512 28.8008299,10.9752066 29,8.79338843 C29,8.39669421 28.9004149,8.19834711 28.7012448,8.09917355 L28.7012448,8.09917355 Z" id="Shape" fill="#5BABDC" sketch:type="MSShapeGroup"></path>
                <path d="M12.9188884,24.1927711 C12.8129725,24.0963855 12.7070566,24 12.3893089,24 C12.0715612,24 11.8597294,24.1927711 11.8597294,24.2891566 C10.059159,26.6987952 9.21183181,29.0120482 9,31.3253012 C9,31.5180723 9.1059159,31.7108434 9.21183181,31.8072289 C9.31774771,31.9036145 9.52957951,32 9.74141132,32 L13.9780474,32 C14.2957951,32 14.6135428,31.7108434 14.7194587,31.4216867 C14.8253746,30.2650602 15.1431223,29.2048193 15.8845337,28.0481928 C16.0963655,27.6626506 15.9904496,27.2771084 15.7786178,27.0843373 C15.0372064,26.2168675 14.1898792,25.3493976 12.9188884,24.1927711 L12.9188884,24.1927711 Z" id="Shape" fill="#5BABDC" sketch:type="MSShapeGroup"></path>
                <path d="M17,10.0909091 C18.2857143,10.0909091 19.1428571,10 19.3571429,10 C19.6785714,10 20,10.2727273 20,10.5454545 L20,10.7272727 C19.7857143,11.0909091 19.0357143,12.5454545 17.5357143,13.8181818 C17.3214286,14 17.2142857,14 17,14 L17,14 C16.8928571,14 16.6785714,14 16.4642857,13.8181818 C14.9642857,12.5454545 14.1071429,11.1818182 14,10.7272727 L14,10.5454545 C14,10.1818182 14.3214286,10 14.6428571,10 C14.8571429,10 15.6071429,10.0909091 17,10.0909091 L17,10.0909091 L17,10.0909091 Z" id="Shape" fill="#5BABDC" sketch:type="MSShapeGroup"></path>
                <g id="Shape-+-Shape" transform="translate(114.000000, 7.000000)" fill="#1D5080" sketch:type="MSShapeGroup">
                    <path d="M4.375,1.33670852e-13 L0.625,1.33670852e-13 C0.3125,1.33670852e-13 -5.90638649e-14,0.279069767 -5.90638649e-14,0.558139535 L-5.90638649e-14,3.44186047 C-5.90638649e-14,3.72093023 0.3125,4 0.625,4 L4.375,4 C4.6875,4 5,3.72093023 5,3.44186047 L5,0.558139535 C5,0.186046512 4.6875,1.33670852e-13 4.375,1.33670852e-13 L4.375,1.33670852e-13 Z" id="Shape"></path>
                    <path d="M4.375,7 L0.625,7 C0.3125,7 -5.90638649e-14,7.30857143 -5.90638649e-14,7.61714286 L-5.90638649e-14,24.3828571 C-5.90638649e-14,24.6914286 0.3125,25 0.625,25 L4.375,25 C4.6875,25 5,24.6914286 5,24.3828571 L5,7.61714286 C5,7.30857143 4.6875,7 4.375,7 L4.375,7 Z" id="Shape"></path>
                </g>
            </g>
        </g>
    </g>
</svg>